<svg t="1642344192687" class="icon" viewBox="0 0 1024 1024" version="1.1" xmlns="http://www.w3.org/2000/svg" p-id="3082" width="200" height="200"><path d="M919.04 416.4608c0-17.8688-5.12-22.9888-22.9888-22.9888H130.304c-17.8688 0-25.6 5.12-25.6 25.6v400.7424c0 53.6064 22.9888 76.8 74.0352 76.8h668.8256c51.2 0 74.0352-22.9888 74.0352-74.0352-2.56-138.0864-2.56-270.848-2.56-406.1184zM125.184 352.6144H875.52c43.4176 0 43.4176 0 43.4176-40.96 0-48.4864-20.48-66.56-66.56-66.56h-323.8912c-40.96 0-40.96 0-40.96-40.96 0-43.4176-20.48-61.44-63.7952-61.44H168.6016c-46.08-2.56-63.7952 15.36-66.56 61.44v125.5424c0.3584 20.4288 5.4784 22.9376 23.1424 22.9376z" p-id="3083" fill="#8a8a8a"></path></svg>