<svg t="1642351419066" class="icon" viewBox="0 0 1024 1024" version="1.1" xmlns="http://www.w3.org/2000/svg" p-id="6876" width="200" height="200"><path d="M374.605824 63.960064 137.52832 63.960064c-40.620032 0-73.5488 32.928768-73.5488 73.5488l0 237.077504c0 40.620032 32.928768 73.5488 73.5488 73.5488l237.077504 0c40.620032 0 73.5488-32.928768 73.5488-73.5488L448.154624 137.508864C448.154624 96.888832 415.225856 63.960064 374.605824 63.960064z" p-id="6877" fill="#ffffff"></path><path d="M886.606848 63.960064 649.52832 63.960064c-40.620032 0-73.5488 32.928768-73.5488 73.5488l0 237.077504c0 40.620032 32.928768 73.5488 73.5488 73.5488l237.077504 0c40.620032 0 73.547776-32.928768 73.547776-73.5488L960.1536 137.508864C960.154624 96.888832 927.22688 63.960064 886.606848 63.960064z" p-id="6878" fill="#ffffff"></path><path d="M374.605824 575.960064 137.52832 575.960064c-40.620032 0-73.5488 32.927744-73.5488 73.547776l0 237.077504c0 40.620032 32.928768 73.5488 73.5488 73.5488l237.077504 0c40.620032 0 73.5488-32.928768 73.5488-73.5488L448.154624 649.50784C448.154624 608.887808 415.225856 575.960064 374.605824 575.960064z" p-id="6879" fill="#ffffff"></path><path d="M886.606848 575.960064 649.52832 575.960064c-40.620032 0-73.5488 32.927744-73.5488 73.547776l0 237.077504c0 40.620032 32.928768 73.5488 73.5488 73.5488l237.077504 0c40.620032 0 73.547776-32.928768 73.547776-73.5488L960.1536 649.50784C960.154624 608.887808 927.22688 575.960064 886.606848 575.960064z" p-id="6880" fill="#ffffff"></path></svg>