<svg t="1642351853101" class="icon" viewBox="0 0 1024 1024" version="1.1" xmlns="http://www.w3.org/2000/svg" p-id="20957" width="200" height="200"><path d="M362.666667 448h-213.333334c-46.933333 0-85.333333-38.4-85.333333-85.333333v-213.333334c0-46.933333 38.4-85.333333 85.333333-85.333333h213.333334c46.933333 0 85.333333 38.4 85.333333 85.333333v213.333334c0 46.933333-38.4 85.333333-85.333333 85.333333z m-213.333334-298.666667v213.333334h213.333334v-213.333334h-213.333334zM917.333333 405.333333h-298.666666c-25.6 0-42.666667-17.066667-42.666667-42.666666s17.066667-42.666667 42.666667-42.666667h298.666666c25.6 0 42.666667 17.066667 42.666667 42.666667s-17.066667 42.666667-42.666667 42.666666zM917.333333 192h-298.666666c-25.6 0-42.666667-17.066667-42.666667-42.666667s17.066667-42.666667 42.666667-42.666666h298.666666c25.6 0 42.666667 17.066667 42.666667 42.666666s-17.066667 42.666667-42.666667 42.666667zM362.666667 960h-213.333334c-46.933333 0-85.333333-38.4-85.333333-85.333333v-213.333334c0-46.933333 38.4-85.333333 85.333333-85.333333h213.333334c46.933333 0 85.333333 38.4 85.333333 85.333333v213.333334c0 46.933333-38.4 85.333333-85.333333 85.333333z m-213.333334-298.666667v213.333334h213.333334v-213.333334h-213.333334zM917.333333 917.333333h-298.666666c-25.6 0-42.666667-17.066667-42.666667-42.666666s17.066667-42.666667 42.666667-42.666667h298.666666c25.6 0 42.666667 17.066667 42.666667 42.666667s-17.066667 42.666667-42.666667 42.666666zM917.333333 704h-298.666666c-25.6 0-42.666667-17.066667-42.666667-42.666667s17.066667-42.666667 42.666667-42.666666h298.666666c25.6 0 42.666667 17.066667 42.666667 42.666666s-17.066667 42.666667-42.666667 42.666667z" p-id="20958" fill="#2c2c2c"></path></svg>