<svg width="300" height="300" viewBox="0 0 300 300" fill="none" xmlns="http://www.w3.org/2000/svg">
<path d="M72.5831 91.5088C71.4893 92.0615 70.4072 92.6464 69.3381 93.2637C61.8131 97.6082 54.5797 104.842 40.1127 119.309C32.8792 126.542 29.2625 130.159 27.0902 133.921C21.1953 144.132 21.1953 156.711 27.0902 166.921C29.2625 170.684 32.8792 174.301 40.1127 181.534L113.086 254.507C126.155 267.576 132.689 274.11 140.224 276.559C146.852 278.712 153.991 278.712 160.619 276.559C168.154 274.11 174.688 267.576 187.757 254.507L206.424 235.84C219.126 223.138 225.655 216.609 228.26 209.334C208.463 219.336 184.856 218.752 165.505 207.579C157.98 203.234 150.746 196.001 136.279 181.534L94.4185 139.673C81.3499 126.605 74.8157 120.07 72.3674 112.536C70.2139 105.908 70.2139 98.7684 72.3674 92.1405C72.4361 91.9292 72.508 91.7187 72.5831 91.5088Z" fill="#00ACDE"/>
<path d="M140.224 24.2842C132.689 26.7324 126.155 33.2667 113.086 46.3352L94.4185 65.0029C81.7164 77.7049 75.1873 84.2341 72.5831 91.5088C92.38 81.5062 115.987 82.0912 135.338 93.2637C142.863 97.6082 150.097 104.842 164.563 119.309L206.424 161.169C219.493 174.238 226.027 180.772 228.475 188.307C230.629 194.935 230.629 202.074 228.475 208.702C228.407 208.913 228.335 209.124 228.26 209.334C229.353 208.781 230.435 208.196 231.505 207.579C239.03 203.234 246.263 196.001 260.73 181.534C267.963 174.301 271.58 170.684 273.753 166.921C279.647 156.711 279.647 144.132 273.753 133.921C271.58 130.159 267.963 126.542 260.73 119.309L187.757 46.3352C174.688 33.2667 168.154 26.7324 160.619 24.2842C153.991 22.1307 146.852 22.1307 140.224 24.2842Z" fill="#DA5964"/>
<path d="M228.26 209.334C228.335 209.124 228.407 208.913 228.475 208.702C230.629 202.074 230.629 194.935 228.475 188.307C226.027 180.772 219.493 174.238 206.424 161.169L164.563 119.309C150.097 104.842 142.863 97.6082 135.338 93.2637C115.987 82.0912 92.38 81.5062 72.5831 91.5088C72.508 91.7187 72.4361 91.9292 72.3674 92.1405C70.2139 98.7684 70.2139 105.908 72.3674 112.536C74.8157 120.07 81.3499 126.605 94.4185 139.673L136.279 181.534C150.746 196.001 157.98 203.234 165.505 207.579C184.856 218.752 208.463 219.336 228.26 209.334Z" fill="#8045DB"/>
</svg>
